# xmcd
#
# Track frame offsets: 
#        150
#        16457
#        27055
#        38528
#        49126
#        66563
#
# Disc length: 1103 seconds
#
# Revision: 0
# Processed by: cddbd v1.5.2PL0 Copyright (c) Steve Scherf et al.
# Submitted via: ExactAudioCopy v1.0b3
#
DISCID=47044d06
DTITLE=Trojka - Swieta bez Granic
DYEAR=2012
DGENRE=Blues
TTITLE0=Karp 2012
TTITLE1=Hymn Trojki
TTITLE2=Bambino Jazzu
TTITLE3=Po piecdziesiatce
TTITLE4=Dni, ktorych nie znamy
TTITLE5=Karp 2012 (wersja karaoke)
EXTD=
EXTT0=
EXTT1=
EXTT2=
EXTT3=
EXTT4=
EXTT5=
PLAYORDER=
